<svg version="1.1" id="Layer_1" xmlns="http://www.w3.org/2000/svg" xmlns:xlink="http://www.w3.org/1999/xlink" x="0px" y="0px"
	 width="100%" viewBox="0 0 736 544" enable-background="new 0 0 736 544" xml:space="preserve">
<path fill="#000000" opacity="1.000000" stroke="none" 
	d="
M321.275085,329.687927 
	C350.215454,345.084137 379.590698,346.487701 409.805176,334.960449 
	C415.270691,332.875275 417.344604,329.836395 417.156128,323.821472 
	C416.712860,309.674500 417.174774,295.501343 417.054688,281.340637 
	C417.019196,277.154510 418.244415,275.456329 422.757080,275.564117 
	C434.746582,275.850403 446.749878,275.799042 458.742462,275.586456 
	C462.954590,275.511780 464.210724,277.118744 464.186340,281.139435 
	C464.059265,302.132233 464.042206,323.126862 464.199585,344.119232 
	C464.229706,348.141724 462.187347,350.644867 459.609283,353.078796 
	C444.544800,367.301056 426.871338,376.291199 406.406433,379.828308 
	C382.012115,384.044556 357.895020,383.284943 334.549377,374.686096 
	C305.419830,363.956848 288.018311,342.314301 279.750061,312.939789 
	C276.178955,300.252838 274.189911,287.266937 274.689484,274.010712 
	C274.748810,272.436340 274.142639,270.719513 275.997345,268.534760 
	C284.424896,294.050964 297.479889,315.721100 321.275085,329.687927 
z"/>
<path fill="#000000" opacity="1.000000" stroke="none" 
	d="
M392.638123,215.334686 
	C380.334412,213.153442 368.536041,213.726990 357.242157,217.839478 
	C337.749939,224.937180 328.287476,240.316071 324.343719,259.757935 
	C322.626770,268.221954 321.738098,276.794556 322.714569,285.312927 
	C320.589050,286.201630 319.874664,284.776855 319.073334,283.862061 
	C298.379578,260.238556 295.973053,217.474487 317.664551,194.082886 
	C329.140717,181.707199 343.922729,175.508194 360.198273,172.798706 
	C394.781525,167.041473 425.781677,175.458420 453.351746,197.013535 
	C456.129059,199.184921 456.734375,200.734589 454.428619,203.843796 
	C448.083862,212.399323 442.152588,221.260956 436.018860,229.974106 
	C434.991455,231.433578 434.223419,233.195862 431.813660,234.096283 
	C420.781647,224.378342 407.910736,217.786224 392.638123,215.334686 
z"/>
</svg>